<svg width="256" height="256" viewBox="0 0 256 256" fill="none" xmlns="http://www.w3.org/2000/svg">
<path d="M122.855 10.1402C114.742 15.808 91.3924 26.388 77.7387 30.7334C70.615 32.8115 53.7952 35.6454 40.3393 36.779L16 39.0461L17.1873 58.8835C22.3322 137.855 56.7634 200.957 117.117 241.765C122.064 245.166 127.011 248 127.802 248C131.76 248 153.725 231.942 167.378 218.906C210.912 177.719 234.856 123.686 239.012 56.9943L240 39.0461L215.86 36.779C183.604 33.7562 164.608 28.0884 140.467 14.1077C128 6.92844 127.802 6.73951 122.855 10.1402ZM143.039 44.903C158.474 52.2712 184.198 60.0171 200.622 61.9065L211.505 63.2289L210.121 75.6982C206.162 111.406 191.52 148.435 169.95 177.152C162.233 187.354 133.541 215.883 130.771 215.883C129.979 215.883 129.188 203.981 129.188 189.433V162.982H116.325H103.463L104.65 154.859C105.442 150.513 107.025 140.689 108.608 132.943C110.983 120.663 110.983 118.396 108.212 113.295C101.682 101.392 108.41 86.467 122.855 80.7992C127.604 78.91 129.188 77.0206 129.188 73.6199C129.188 69.0856 128.792 69.0856 121.47 70.786C113.357 72.6754 94.1628 70.975 72.0001 66.4407C59.9294 63.9846 60.9189 62.851 77.9365 59.2614C84.0709 57.939 97.5266 52.8379 107.619 47.9258C117.908 42.8247 126.813 38.6684 127.802 38.4793C128.594 38.4793 135.52 41.3133 143.039 44.903Z" fill="#5463FF"/>
<path d="M129.186 122.364V162.983H141.059C155.109 162.983 154.515 164.306 149.766 137.1C146.798 120.852 146.798 118.963 149.766 113.106C153.723 105.171 153.723 100.07 149.964 93.0798C146.402 86.4673 139.674 81.7441 133.738 81.7441H129.186V122.364Z" fill="#FFD857"/>
</svg>
