<svg width="538" height="174" viewBox="0 0 538 174" fill="none" xmlns="http://www.w3.org/2000/svg">
<path d="M72 1.51052C66.5333 5.51052 50.8 12.9772 41.6 16.0439C36.8 17.5105 25.4667 19.5105 16.4 20.3105L0 21.9105L0.8 35.9105C4.26667 91.6439 27.4667 136.177 68.1333 164.977C71.4667 167.377 74.8 169.377 75.3333 169.377C78 169.377 92.8 158.044 102 148.844C131.333 119.777 147.467 81.6439 150.267 34.5772L150.933 21.9105L134.667 20.3105C112.933 18.1772 100.133 14.1772 83.8667 4.31052C75.4667 -0.756145 75.3333 -0.889478 72 1.51052ZM85.6 26.0439C96 31.2439 113.333 36.7105 124.4 38.0439L131.733 38.9772L130.8 47.7772C128.133 72.9772 118.267 99.1105 103.733 119.377C98.5333 126.577 79.2 146.711 77.3333 146.711C76.8 146.711 76.2667 138.311 76.2667 128.044V109.377H67.6H58.9333L59.7333 103.644C60.2667 100.577 61.3333 93.6439 62.4 88.1772C64 79.5105 64 77.9105 62.1333 74.3105C57.7333 65.9105 62.2667 55.3772 72 51.3772C75.2 50.0439 76.2667 48.7105 76.2667 46.3105C76.2667 43.1105 76 43.1105 71.0667 44.3105C65.6 45.6439 52.6667 44.4439 37.7333 41.2439C29.6 39.5105 30.2667 38.7105 41.7333 36.1772C45.8667 35.2439 54.9333 31.6439 61.7333 28.1772C68.6667 24.5772 74.6667 21.6439 75.3333 21.5105C75.8667 21.5105 80.5333 23.5105 85.6 26.0439Z" fill="#5463FF"/>
<path d="M76.2666 80.7105V109.377H84.2666C93.7333 109.377 93.3333 110.311 90.1333 91.1105C88.1333 79.6439 88.1333 78.3105 90.1333 74.1772C92.7999 68.5772 92.7999 64.9772 90.2666 60.0439C87.8666 55.3772 83.3333 52.0439 79.3333 52.0439H76.2666V80.7105Z" fill="#FFD857"/>
<path d="M177.6 98.7105H200.267V62.5771L218.267 63.3771L219.067 98.7105H241.6V10.7104H218.933V46.7105H200.267V10.7104H177.6V98.7105Z" fill="#5463FF"/>
<path d="M264.267 98.7105H317.6V81.3771H286.933V62.7105H312.267V45.2438L301.333 45.3771C295.2 45.5105 289.467 45.5105 288.667 45.5105C287.467 45.3771 286.933 42.5771 286.933 36.0438V26.7105H316.267V10.7104H264.267V98.7105Z" fill="#5463FF"/>
<path d="M336.267 98.7105V10.7104H360.267V82.0438L386.933 81.2438V98.7105H336.267Z" fill="#5463FF"/>
<path d="M404.267 98.7105H454.933V81.3771H428.267V10.7104H404.267V98.7105Z" fill="#5463FF"/>
<path fill-rule="evenodd" clip-rule="evenodd" d="M472.267 55.1105C472.267 18.5772 472.667 16.9772 480.267 12.9772C484.267 10.9772 487.733 10.7105 503.2 10.9772C532.133 11.6439 532.667 12.4439 532 57.3772C531.6 90.0439 531.2 91.7772 524 95.5105C518.933 98.1772 502.533 99.3772 490.133 98.0439C482.267 97.2439 480.533 96.5772 476.667 92.7105L472.267 88.3105V55.1105ZM508.267 81.5105L508 54.4439L507.6 27.3772L501.867 26.9772C498.133 26.7105 496 27.1105 495.6 28.3105C495.2 29.3772 495.067 41.5105 495.2 55.3772L495.6 80.7105L502 81.1105L508.267 81.5105Z" fill="#5463FF"/>
<path d="M174.933 173.377H204.267V164.044H186.933V153.377H200.267V144.044H186.933V134.71H202.933V125.377H174.933V173.377Z" fill="#FFD857"/>
<path d="M212.267 173.377H224.267V160.977L224.4 148.71L229.6 160.71L234.667 172.71L245.6 173.51V125.377H233.467L233.6 135.644C233.733 141.377 233.733 146.977 233.6 148.044C233.6 149.11 231.2 144.577 228.4 138.044L223.333 126.044L217.867 125.644L212.267 125.244V173.377Z" fill="#FFD857"/>
<path d="M258.8 127.91C255.733 130.444 255.6 131.11 255.6 149.244C255.6 172.71 255.6 172.71 271.6 172.71C284.8 172.71 286.933 171.377 287.867 162.177L288.667 156.044H281.867C275.2 156.044 275.067 156.177 274.667 160.31C274.4 163.644 273.6 164.71 271.6 164.71C269.067 164.71 268.933 163.644 268.533 148.977L268.133 133.377H271.6C274.533 133.377 274.933 133.91 274.933 138.044V142.71H288.667L287.867 136.444C286.933 127.51 283.867 125.377 271.6 125.377C264 125.377 261.2 125.91 258.8 127.91Z" fill="#FFD857"/>
<path d="M296.267 173.377H309.6V164.444C309.6 154.444 310.4 154.577 315.067 165.644L318.267 173.377H332.267L328 164.844L323.867 156.444L326.8 153.51C329.2 151.11 329.6 149.11 329.6 140.71C329.6 126.31 328.4 125.377 310.267 125.377H296.267V173.377ZM316.933 141.377C316.933 146.977 316.667 147.377 313.333 147.777C309.733 148.177 309.6 148.044 309.6 141.377C309.6 134.71 309.733 134.577 313.333 134.977C316.667 135.377 316.933 135.777 316.933 141.377Z" fill="#FFD857"/>
<path d="M343.067 140.977C348.4 153.91 349.467 158.177 349.6 164.977V173.377H362.933V164.71C362.933 159.11 363.867 153.644 365.733 149.11C367.2 145.244 369.867 138.31 371.6 133.644L374.8 125.377H362.133L359.067 135.644L356 146.044L352.8 135.644L349.467 125.377H336.667L343.067 140.977Z" fill="#FFD857"/>
<path d="M381.6 173.377H394.933V157.377H402.267C413.067 157.377 414.933 154.977 414.933 141.377C414.933 126.177 413.867 125.377 395.6 125.377H381.6V173.377ZM402.267 141.377C402.267 146.977 402 147.377 398.667 147.777C395.067 148.177 394.933 148.044 394.933 141.377C394.933 134.71 395.067 134.577 398.667 134.977C402 135.377 402.267 135.777 402.267 141.377Z" fill="#FFD857"/>
<path d="M421.6 130.044C421.6 134.444 421.867 134.71 426.267 134.71H430.933V173.377H442.933V134.71H447.6C452 134.71 452.267 134.444 452.267 130.044V125.377H421.6V130.044Z" fill="#FFD857"/>
<path d="M463.2 127.51C460.4 129.377 460.267 130.444 460.267 148.577C460.267 172.977 460 172.71 476 172.71C492.667 172.71 492.267 173.377 492.267 149.244C492.267 125.377 492.267 125.377 476.267 125.377C469.333 125.377 465.333 126.044 463.2 127.51ZM480.267 164.177L476.667 163.777L472.933 163.377L472.133 134.71H480.267V164.177Z" fill="#FFD857"/>
<path d="M502.933 173.377H514.933V164.71C514.933 159.91 515.333 156.044 516 156.044C516.533 156.044 518.667 159.91 520.8 164.71L524.533 173.377H531.067C534.667 173.377 537.6 173.11 537.6 172.71C537.6 172.31 535.867 168.444 533.6 164.044L529.6 156.177L532.933 152.844C535.867 149.91 536.267 148.31 536.267 140.71C536.267 133.11 535.867 131.51 532.933 128.71C530 125.644 528.8 125.377 516.267 125.377H502.933V173.377ZM522.667 140.977C522.267 146.844 522 147.377 518.933 147.377C515.867 147.377 515.6 146.844 515.2 140.977C514.8 134.71 514.8 134.71 518.933 134.71C523.067 134.71 523.067 134.71 522.667 140.977Z" fill="#FFD857"/>
</svg>
